<?xml version="1.0" standalone="no"?>
<!DOCTYPE svg PUBLIC "-//W3C//DTD SVG 20010904//EN"
 "http://www.w3.org/TR/2001/REC-SVG-20010904/DTD/svg10.dtd">
<svg version="1.0" xmlns="http://www.w3.org/2000/svg"
 width="411.000000pt" height="411.000000pt" viewBox="0 0 411.000000 411.000000"
 preserveAspectRatio="xMidYMid meet">
<metadata>
Created by potrace 1.11, written by Peter Selinger 2001-2013
</metadata>
<g transform="translate(0.000000,411.000000) scale(0.100000,-0.100000)"
fill="#000000" stroke="none">
<path d="M1959 4096 c-38 -7 -108 -32 -160 -58 -115 -56 -132 -61 -169 -53
-21 5 -27 11 -23 22 5 13 2 15 -13 9 -10 -4 -53 -14 -94 -23 -41 -8 -83 -20
-94 -25 -10 -6 -28 -11 -40 -13 -43 -7 -253 -105 -301 -141 -27 -21 -75 -46
-105 -57 -30 -10 -69 -32 -86 -48 -17 -17 -44 -33 -60 -38 -17 -4 -40 -23 -55
-46 -23 -34 -99 -86 -99 -68 0 21 -106 -101 -208 -241 -136 -184 -121 -160
-162 -261 -34 -84 -77 -174 -91 -190 -12 -13 -11 12 1 35 7 13 7 21 0 25 -17
10 -58 -93 -79 -195 -11 -52 -17 -98 -14 -103 7 -12 -8 -68 -17 -62 -4 3 -16
-26 -25 -63 -9 -37 -19 -73 -21 -80 -2 -7 0 -10 5 -7 5 3 1 -19 -10 -50 -24
-70 -26 -140 -3 -131 14 5 15 0 10 -39 -30 -194 -34 -366 -10 -386 10 -8 14
-23 11 -43 -2 -17 0 -44 4 -61 6 -19 5 -40 -2 -56 -13 -33 4 -104 27 -113 20
-7 44 -66 44 -108 1 -42 23 -83 46 -83 19 0 30 -31 41 -109 4 -30 3 -37 -8
-30 -7 4 3 -12 23 -37 34 -40 62 -89 154 -269 19 -36 56 -91 84 -122 27 -31
51 -67 52 -79 2 -14 22 -38 48 -60 25 -19 77 -71 115 -113 78 -88 134 -130
317 -240 95 -57 139 -78 175 -82 27 -4 103 -32 177 -66 70 -33 147 -62 170
-65 78 -8 171 -26 182 -34 17 -14 259 -39 374 -39 110 0 342 24 382 39 13 5
40 9 59 9 56 1 186 39 273 81 100 47 152 65 167 55 7 -4 9 -3 6 3 -3 5 9 17
28 26 42 20 46 14 8 -8 -27 -15 -27 -16 -3 -9 33 8 72 32 215 131 131 91 177
128 168 137 -12 11 21 37 40 32 23 -6 86 35 133 86 40 43 112 144 96 134 -6
-4 -12 -3 -12 3 0 6 20 25 44 43 24 18 48 46 54 61 6 16 15 26 20 23 11 -6
124 163 137 203 6 20 4 23 -9 18 -23 -9 -21 -1 28 112 24 55 40 101 36 101 -5
0 7 34 26 74 52 113 90 222 110 316 16 75 18 137 18 535 l1 450 -29 85 c-34
101 -76 188 -122 251 -19 26 -34 56 -34 67 0 20 -60 111 -196 299 -100 137
-307 343 -424 421 -135 91 -297 168 -405 193 -49 11 -125 32 -167 45 -42 13
-85 24 -95 24 -31 -1 -267 42 -288 52 -11 5 -61 8 -110 6 -50 -2 -115 0 -145
4 -31 3 -84 1 -121 -6z m586 -270 c264 -78 488 -178 596 -267 174 -142 421
-386 477 -470 152 -227 253 -479 331 -832 35 -156 37 -177 17 -177 -26 0 -38
-29 -77 -192 -48 -197 -129 -469 -174 -588 -145 -381 -362 -598 -824 -829
-256 -128 -594 -204 -890 -201 -87 0 -152 5 -165 12 -12 7 -43 15 -71 19 -61
9 -182 37 -212 50 -47 19 -70 28 -133 49 -36 12 -85 33 -109 46 -24 13 -47 21
-52 18 -5 -3 -28 8 -51 24 -24 16 -76 48 -117 72 -40 24 -104 71 -141 104 -37
34 -90 80 -117 103 -28 23 -83 90 -123 150 -41 59 -91 129 -112 154 -21 26
-38 52 -38 58 0 16 -99 161 -110 161 -17 0 -40 32 -40 57 0 14 -8 40 -19 57
-10 17 -26 57 -35 89 -28 96 -36 113 -46 97 -16 -26 -24 0 -11 35 13 37 9 55
-15 55 -19 0 -19 100 0 206 8 44 17 147 21 229 13 312 77 590 185 805 82 162
276 400 326 400 17 0 30 10 43 33 33 55 95 127 112 127 8 0 28 13 43 29 16 16
40 32 54 36 14 3 76 37 138 75 220 135 303 169 488 201 237 41 317 48 521 45
200 -2 200 -2 330 -40z"/>
<path d="M1900 3814 c-14 -2 -59 -9 -100 -15 -130 -19 -228 -48 -373 -110
-183 -79 -195 -85 -237 -124 -19 -18 -46 -35 -60 -39 -37 -9 -216 -147 -284
-219 -32 -34 -70 -80 -84 -102 -14 -22 -31 -44 -39 -48 -7 -4 -22 -26 -34 -49
-11 -22 -34 -59 -50 -81 -16 -22 -29 -44 -29 -49 0 -6 -8 -22 -19 -36 -30 -43
-71 -118 -91 -167 -7 -16 -18 -43 -25 -60 -8 -16 -23 -59 -35 -95 -12 -36 -26
-74 -30 -85 -40 -103 -45 -572 -8 -738 7 -29 11 -58 9 -65 -3 -17 55 -195 79
-242 10 -19 23 -48 29 -65 35 -93 251 -353 251 -302 0 8 -31 61 -68 118 -99
151 -130 209 -164 307 -72 213 -102 418 -93 647 7 185 23 282 65 415 45 138
71 202 96 230 12 14 64 95 115 180 137 227 291 378 527 516 158 92 235 122
449 175 155 38 181 42 341 46 94 3 172 9 172 13 0 9 -38 24 -95 39 -38 10
-160 13 -215 5z"/>
<path d="M2363 3734 c-37 -16 4 -35 132 -59 53 -10 129 -38 234 -86 265 -121
377 -176 427 -211 27 -19 61 -40 76 -47 30 -16 52 -36 169 -158 47 -50 93
-106 103 -124 9 -19 32 -59 51 -89 69 -111 136 -264 160 -365 77 -330 83 -350
100 -333 13 12 17 111 7 150 -6 24 -18 80 -27 126 -18 93 -97 299 -124 322
-10 9 -18 23 -18 31 0 37 -117 242 -150 262 -7 4 -13 13 -13 20 0 10 -75 97
-84 97 -2 0 -27 23 -56 50 -29 28 -57 50 -62 50 -5 0 -35 21 -66 48 -31 26
-82 59 -112 74 -78 39 -189 88 -198 88 -4 0 -34 14 -66 30 -32 17 -65 30 -72
30 -8 0 -14 4 -14 9 0 9 -24 19 -146 61 -50 18 -228 35 -251 24z"/>
<path d="M2030 3540 c-25 -4 -78 -12 -118 -19 -41 -6 -81 -15 -90 -20 -9 -4
-46 -14 -82 -21 -36 -6 -84 -20 -107 -31 -23 -10 -48 -19 -55 -19 -8 0 -18 -4
-24 -9 -5 -5 -38 -18 -74 -30 -98 -33 -180 -103 -180 -155 0 -17 4 -16 33 11
57 54 171 103 377 159 249 69 488 90 668 60 127 -21 185 -41 304 -103 l93 -48
-83 -3 c-85 -3 -174 15 -219 43 -27 18 -127 4 -154 -21 -10 -9 -36 -46 -56
-81 -37 -62 -38 -63 -73 -56 -19 3 -47 15 -61 26 -22 16 -30 17 -49 7 -12 -6
-76 -16 -143 -20 -173 -13 -334 -48 -392 -86 -15 -10 -40 -25 -56 -33 -29 -16
-143 -101 -287 -216 -150 -118 -278 -320 -309 -485 -20 -108 -13 -411 12 -509
16 -68 62 -161 78 -161 5 0 7 6 4 13 -7 18 -25 138 -37 243 -29 258 9 515 95
649 18 28 72 90 119 138 47 49 86 93 86 98 0 6 16 17 35 25 34 14 117 68 160
104 27 23 129 78 179 97 87 32 184 53 267 57 l86 4 -1 -89 -1 -89 -80 1 c-93
0 -182 -14 -222 -34 -15 -8 -55 -23 -87 -32 -90 -26 -206 -105 -206 -140 0
-14 132 39 251 101 26 13 56 24 66 24 10 0 25 6 31 12 9 9 42 12 110 9 163 -5
145 6 164 -102 19 -103 23 -189 9 -189 -17 0 -194 148 -247 208 -27 30 -34 33
-52 23 -11 -6 -36 -11 -55 -11 -31 0 -38 -6 -71 -60 -21 -33 -49 -67 -64 -74
-15 -8 -56 -44 -92 -81 -36 -37 -92 -90 -124 -118 l-59 -52 7 39 c9 48 28 80
78 129 21 21 38 44 38 52 0 19 -3 19 -49 -5 -75 -38 -127 -122 -137 -223 l-7
-65 -70 -33 c-51 -25 -78 -45 -100 -76 -31 -44 -52 -130 -36 -147 5 -6 9 -18
9 -29 0 -11 13 -23 33 -32 18 -7 39 -26 46 -42 36 -74 95 -214 115 -270 13
-34 51 -108 84 -165 34 -58 62 -111 62 -119 0 -8 16 -48 36 -89 20 -41 40 -85
45 -98 l9 -22 -43 21 c-23 12 -46 27 -52 34 -5 7 -25 21 -44 31 -19 11 -42 25
-50 32 -9 7 -42 34 -74 59 -31 25 -60 56 -63 70 -7 28 -49 63 -76 63 -17 0
-14 -9 23 -80 37 -72 50 -87 139 -157 55 -43 143 -102 198 -130 99 -53 99 -53
125 -115 15 -35 27 -68 27 -75 0 -13 112 -93 129 -93 6 0 11 7 11 15 0 22 57
48 89 40 56 -15 67 -17 106 -25 22 -4 53 -12 68 -19 30 -12 420 -17 449 -6 9
4 30 -1 46 -9 25 -13 41 -14 83 -6 60 11 75 21 83 54 4 15 40 49 94 88 80 59
94 74 152 169 35 57 74 119 88 136 21 29 22 34 8 39 -28 11 -85 -38 -128 -109
-45 -75 -180 -226 -186 -208 -4 13 43 107 94 187 19 30 68 127 109 216 41 88
81 168 89 177 22 25 94 174 157 325 32 77 62 143 66 147 10 10 -2 -152 -16
-205 -5 -22 -8 -43 -5 -47 6 -10 -20 -120 -35 -147 -22 -41 -72 -194 -69 -210
2 -12 13 -3 35 29 51 73 92 162 112 241 32 126 64 403 57 493 -19 248 -173
509 -409 694 l-67 53 92 97 c51 53 94 95 96 95 7 -2 119 -87 259 -196 182
-140 229 -199 283 -349 57 -159 71 -233 71 -379 0 -101 -6 -152 -30 -265 -50
-232 -79 -337 -109 -395 -16 -30 -77 -149 -137 -265 -119 -233 -167 -308 -283
-441 -127 -145 -191 -184 -390 -241 -70 -19 -143 -44 -162 -54 -33 -17 -33
-18 -10 -19 52 0 256 29 296 43 134 48 276 160 385 303 22 28 77 123 123 210
45 88 106 202 133 254 28 52 54 109 58 126 3 18 14 39 25 49 23 21 54 96 80
195 10 41 30 116 44 165 57 207 57 555 1 665 -7 14 -16 38 -19 55 -19 76 -99
197 -194 292 -117 116 -363 306 -484 373 -113 63 -298 150 -317 150 -11 0 -38
6 -58 14 -85 32 -329 45 -453 26z m547 -321 c27 -10 26 -12 -57 -45 -113 -46
-240 -88 -246 -81 -8 8 107 98 151 118 45 21 110 24 152 8z m48 -144 c-69 -64
-97 -81 -147 -90 -36 -7 -148 11 -148 23 0 15 292 121 335 121 15 0 5 -13 -40
-54z m251 -261 c46 -45 84 -84 84 -87 0 -3 19 -33 43 -67 23 -34 45 -67 49
-73 26 -46 88 -235 88 -270 0 -25 -16 -12 -22 17 -5 30 -35 44 -54 24 -15 -15
-26 -8 -144 86 -70 55 -169 137 -219 180 -86 74 -90 80 -75 97 36 40 -25 96
-91 83 -26 -4 -43 -1 -70 16 -19 12 -35 23 -35 25 0 2 17 1 38 -2 55 -7 120
26 166 87 l38 50 60 -42 c32 -23 97 -79 144 -124z m-603 32 c36 -7 77 -26 132
-62 22 -15 20 -16 -103 -79 -69 -36 -126 -64 -127 -62 -5 6 -12 227 -8 231 3
3 20 -1 37 -8 17 -7 48 -16 69 -20z m-438 -267 c22 -15 79 -63 127 -108 76
-70 93 -81 123 -81 48 0 88 22 155 85 52 49 120 83 227 114 42 12 94 -13 174
-84 35 -32 97 -80 136 -107 177 -119 232 -201 188 -278 -8 -14 -14 -39 -15
-55 -1 -105 -69 -254 -222 -488 -62 -95 -144 -235 -183 -312 -85 -169 -94
-177 -178 -145 -82 31 -176 97 -217 153 -43 58 -61 59 -141 12 -33 -19 -62
-35 -64 -35 -2 0 -60 -25 -129 -56 -69 -30 -136 -54 -148 -52 -18 2 -34 24
-69 93 -25 50 -87 162 -138 250 -167 289 -311 599 -311 671 0 37 75 111 235
231 77 58 160 125 185 149 25 23 65 58 90 77 l45 34 45 -21 c25 -11 63 -33 85
-47z m321 -1498 c43 -22 99 -53 123 -70 l45 -30 -180 4 c-174 4 -326 23 -346
43 -9 9 26 25 167 76 66 24 104 19 191 -23z"/>
<path d="M2031 2197 c-5 -12 -14 -57 -21 -100 -12 -73 -21 -90 -35 -67 -12 20
-107 90 -121 90 -8 0 -14 -6 -14 -14 0 -8 -11 -17 -25 -20 -51 -13 -29 -56 65
-127 38 -30 70 -57 70 -61 0 -4 -25 -22 -55 -40 -55 -32 -74 -61 -61 -93 3 -8
14 -15 25 -15 12 0 18 -6 17 -17 -2 -26 48 -20 87 10 62 46 59 49 52 -69 -9
-154 18 -232 71 -209 11 4 24 7 30 6 31 -4 37 29 31 173 -3 79 -3 147 0 150 3
3 31 -14 62 -38 105 -80 127 -81 133 -4 2 43 -16 67 -93 119 -27 19 -49 37
-49 40 0 4 29 31 64 60 89 75 95 89 60 128 -37 42 -65 40 -118 -9 -24 -22 -46
-40 -50 -40 -3 0 -6 22 -6 49 0 57 -18 84 -73 106 -36 15 -38 15 -46 -8z"/>
<path d="M1085 3142 c-27 -20 -78 -78 -115 -129 -36 -50 -95 -131 -132 -180
-92 -119 -190 -337 -196 -433 -2 -36 -8 -69 -12 -75 -28 -37 -36 -296 -14
-414 9 -47 18 -99 19 -116 2 -34 40 -157 59 -195 7 -14 16 -38 20 -53 8 -35
63 -153 79 -170 7 -6 30 -39 51 -72 22 -33 84 -103 140 -155 55 -52 143 -137
195 -187 52 -51 99 -93 103 -93 4 0 16 -8 26 -18 35 -33 97 -79 132 -97 19 -9
44 -25 55 -35 22 -19 178 -79 270 -104 88 -24 306 -19 355 9 l35 20 -146 7
c-175 8 -247 24 -371 79 -174 77 -290 165 -529 401 -226 223 -299 314 -318
399 -6 24 -24 81 -40 126 -66 178 -84 292 -82 507 0 122 19 225 61 352 34 98
43 115 148 257 42 58 110 153 151 211 41 59 92 125 113 148 21 23 38 43 38 45
0 1 -10 3 -22 3 -13 0 -45 -17 -73 -38z"/>
<path d="M3743 1938 c-16 -186 -35 -259 -114 -442 -91 -211 -169 -345 -290
-496 -124 -155 -179 -211 -298 -309 -167 -136 -203 -156 -375 -211 -219 -70
-291 -81 -534 -80 -171 0 -226 4 -355 25 -265 45 -305 60 -493 185 -76 51
-150 113 -245 206 -172 170 -200 179 -101 32 115 -171 374 -368 542 -413 222
-59 249 -65 317 -65 40 0 73 -4 73 -9 0 -21 339 -36 467 -21 54 7 114 13 133
15 41 3 201 43 215 55 6 4 21 11 35 15 35 10 164 66 170 74 3 3 46 33 95 66
116 76 249 190 300 255 22 28 57 71 78 94 20 24 37 46 37 50 0 4 16 23 35 43
19 19 44 54 55 77 12 22 35 59 51 81 17 22 44 69 61 105 16 36 36 72 42 80 7
8 23 44 36 80 12 36 31 83 41 106 11 22 19 48 19 58 0 9 7 31 16 48 24 46 47
280 34 344 -6 28 -16 59 -23 68 -10 14 -15 -6 -24 -116z"/>
</g>
</svg>
